# xmcd CD database file
#
# Track frame offsets:
#	150
#	20284
#	51288
#	80875
#	101426
#	119384
#	140027
#	182489
#	204468
#	241637
#	280222
#	301571
#	319837
#
# Disc length: 4578 seconds
#
# Revision: 0
# Processed by: cddbd v1.5.2PL0 Copyright (c) Steve Scherf et al.
# Submitted via: CDex 1.51
#
DISCID=ab11e00d
DTITLE=Rüdiger Baldauf - Trumpet Night
DYEAR=2012
DGENRE=Jazz
TTITLE0=Own Style
TTITLE1=Funky No 5
TTITLE2=Nature Boy
TTITLE3=Groovin'high
TTITLE4=Blame It On The Boogie
TTITLE5=Man In The Mirror
TTITLE6=Topspin
TTITLE7=Autumn Bugle
TTITLE8=Fahrenheit
TTITLE9=Always and Forever
TTITLE10=Gib Mir Die Nacht
TTITLE11=Factor Funk
TTITLE12=Over The Rainbow
EXTD=YEAR: 2012
EXTT0=
EXTT1=
EXTT2=
EXTT3=
EXTT4=
EXTT5=
EXTT6=
EXTT7=
EXTT8=
EXTT9=
EXTT10=
EXTT11=
EXTT12=
PLAYORDER=
